# xmcd
#
# Track frame offsets: 
#        183
#        13965
#        25305
#        37468
#        50385
#        64178
#        74763
#        88205
#        99408
#        113640
#        127983
#        141933
#        152753
#        163048
#
# Disc length: 2357 seconds
#
# Revision: 0
# Processed by: cddbd v1.5.1PL0 Copyright (c) Steve Scherf et al.
# Submitted via: ExactAudioCopy v0.95b1
#
DISCID=cc09330e
DTITLE=Willie Nelson - The Original Hits - The Silver Collection
DYEAR=1991
DGENRE=Country
TTITLE0=Have I Told You Lately That Love You
TTITLE1=Crazy Arms
TTITLE2=Born To Lose
TTITLE3=Teach Me To Forget
TTITLE4=Don't You Ever Get Tired Of Hurting Me
TTITLE5=Heartaches By The Number
TTITLE6=I Love You Because
TTITLE7=The Party's Over
TTITLE8=My Own Peculiar Way
TTITLE9=I Walk Alone
TTITLE10=It Will Come To Pass
TTITLE11=Suffer In Silence
TTITLE12=To Make A Long Story Short (She's Gone)
TTITLE13=Both Sides Now
EXTD=
EXTT0=
EXTT1=
EXTT2=
EXTT3=
EXTT4=
EXTT5=
EXTT6=
EXTT7=
EXTT8=
EXTT9=
EXTT10=
EXTT11=
EXTT12=
EXTT13=
PLAYORDER=
